<svg width="229" height="229" viewBox="0 0 229 229" fill="none" xmlns="http://www.w3.org/2000/svg">
<path d="M198.311 114.72C198.311 160.907 160.869 198.349 114.681 198.349C68.4941 198.349 31.0519 160.907 31.0519 114.72C31.0519 68.5323 68.4941 31.0901 114.681 31.0901C160.869 31.0901 198.311 68.5323 198.311 114.72ZM42.8717 114.72C42.8717 154.379 75.022 186.529 114.681 186.529C154.341 186.529 186.491 154.379 186.491 114.72C186.491 75.0602 154.341 42.91 114.681 42.91C75.022 42.91 42.8717 75.0602 42.8717 114.72Z" fill="#FECF24"/>
<path d="M46.1889 132.067C39.2427 133.827 32.0774 129.614 31.4125 122.479C30.7988 115.893 30.9672 109.242 31.925 102.666C33.508 91.7981 37.2159 81.3486 42.8373 71.9139C48.4586 62.4792 55.8832 54.2441 64.6871 47.6788C73.4911 41.1135 83.5019 36.3465 94.1481 33.65C104.794 30.9536 115.867 30.3805 126.735 31.9634C137.603 33.5464 148.052 37.2543 157.487 42.8757C166.922 48.497 175.157 55.9216 181.722 64.7255C185.695 70.0527 189.009 75.8218 191.604 81.9062C194.416 88.4971 190.12 95.6127 183.174 97.3721C176.227 99.1314 169.293 94.8217 166.029 88.4429C164.562 85.5765 162.855 82.8312 160.921 80.2378C156.392 74.1656 150.712 69.0447 144.205 65.1675C137.698 61.2904 130.491 58.7329 122.995 57.6412C115.499 56.5494 107.862 56.9447 100.519 58.8045C93.1763 60.6643 86.2716 63.9521 80.1994 68.4803C74.1272 73.0086 69.0063 78.6885 65.1292 85.1957C61.252 91.703 58.6946 98.9102 57.6028 106.406C57.1365 109.607 56.9414 112.834 57.0159 116.053C57.1816 123.217 53.1351 130.308 46.1889 132.067Z" fill="#FF736A"/>
<path d="M60.9872 76.4087C53.0434 70.7408 51.0963 59.5279 58.304 52.9494C62.033 49.5459 66.0715 46.479 70.3739 43.7914C79.6883 37.9729 90.0575 34.0459 100.89 32.2348C111.722 30.4237 122.804 30.7638 133.505 33.2357C144.205 35.7077 154.314 40.2631 163.254 46.6418C172.194 53.0205 179.79 61.0977 185.609 70.4121C191.427 79.7264 195.354 90.0957 197.166 100.928C198.977 111.76 198.637 122.842 196.165 133.543C195.023 138.486 193.436 143.302 191.431 147.935C187.555 156.891 176.319 158.698 168.375 153.03V153.03C160.431 147.362 158.974 136.292 161.425 126.846C161.533 126.428 161.636 126.009 161.733 125.589C163.16 119.41 163.357 113.01 162.311 106.755C161.265 100.501 158.997 94.5131 155.638 89.1346C152.278 83.7562 147.891 79.0921 142.729 75.4088C137.567 71.7255 131.729 69.095 125.551 67.6676C119.372 66.2402 112.972 66.0438 106.717 67.0897C100.463 68.1355 94.475 70.403 89.0965 73.7628C88.7303 73.9916 88.3675 74.225 88.0081 74.4632C79.8732 79.8532 68.931 82.0766 60.9872 76.4087V76.4087Z" fill="#73CB50"/>
<path d="M163.514 74.4759C172.188 67.328 185.286 68.5105 190.133 78.6508C191.925 82.4004 193.44 86.2869 194.66 90.2795C197.87 100.782 198.979 111.815 197.925 122.746C196.871 133.678 193.674 144.295 188.517 153.991C183.359 163.687 176.343 172.273 167.868 179.257C159.392 186.242 149.624 191.489 139.121 194.698C128.618 197.908 117.586 199.017 106.655 197.963C95.7229 196.909 85.1058 193.712 75.4097 188.555C71.7237 186.594 68.1982 184.365 64.8602 181.889C55.833 175.193 57.1749 162.111 65.8484 154.963L68.5439 152.742C75.7287 146.821 86.3028 148.248 94.5227 152.62C99.4998 155.267 104.95 156.908 110.561 157.45C116.172 157.991 121.836 157.421 127.227 155.774C132.618 154.126 137.632 151.433 141.983 147.848C146.333 144.262 149.935 139.855 152.582 134.878C155.229 129.901 156.87 124.451 157.411 118.84C157.953 113.228 157.383 107.565 155.736 102.174C153.015 93.2703 153.634 82.6183 160.819 76.6972L163.514 74.4759Z" fill="#6B5DD3"/>
</svg>
