<svg width="10" height="5" viewBox="0 0 10 5" fill="none" xmlns="http://www.w3.org/2000/svg">
<path d="M0.789023 0.170074C0.733779 0.223626 0.68995 0.287243 0.660045 0.357283C0.630139 0.427322 0.614746 0.502408 0.614746 0.578238C0.614746 0.654068 0.630139 0.729153 0.660045 0.799193C0.68995 0.869233 0.733779 0.932851 0.789023 0.986403L4.78011 4.86512C4.82402 4.90788 4.87617 4.9418 4.93358 4.96494C4.99099 4.98809 5.05253 5 5.11468 5C5.17684 5 5.23838 4.98809 5.29579 4.96494C5.3532 4.9418 5.40535 4.90788 5.44925 4.86512L9.44034 0.986403C9.67288 0.760413 9.67288 0.396063 9.44034 0.170073C9.20781 -0.0559167 8.8329 -0.0559167 8.60036 0.170073L5.11706 3.55531L1.629 0.165461C1.39647 -0.0559163 1.02156 -0.0559163 0.789023 0.170074Z" fill="black"/>
</svg>
