<svg width="18" height="18" viewBox="0 0 18 18" fill="none" xmlns="http://www.w3.org/2000/svg">
<path d="M13.875 14.625H10.875" stroke="#FF736A" stroke-width="1.5" stroke-linecap="round" stroke-linejoin="round"/>
<path d="M12.375 16.125V13.125" stroke="#FF736A" stroke-width="1.5" stroke-linecap="round" stroke-linejoin="round"/>
<path d="M9.12001 8.1525C9.04501 8.145 8.95501 8.145 8.87251 8.1525C7.08751 8.0925 5.67001 6.63 5.67001 4.83C5.66251 2.9925 7.15501 1.5 8.99251 1.5C10.83 1.5 12.3225 2.9925 12.3225 4.83C12.3225 6.63 10.8975 8.0925 9.12001 8.1525Z" stroke="#FF736A" stroke-width="1.5" stroke-linecap="round" stroke-linejoin="round"/>
<path d="M8.9925 16.3575C7.6275 16.3575 6.27 16.0125 5.235 15.3225C3.42 14.1075 3.42 12.1275 5.235 10.92C7.2975 9.54001 10.68 9.54001 12.7425 10.92" stroke="#FF736A" stroke-width="1.5" stroke-linecap="round" stroke-linejoin="round"/>
</svg>
