<svg width="22" height="22" viewBox="0 0 22 22" fill="none" xmlns="http://www.w3.org/2000/svg">
<path d="M7.5625 5.27087C7.18667 5.27087 6.875 4.95921 6.875 4.58337V1.83337C6.875 1.45754 7.18667 1.14587 7.5625 1.14587C7.93833 1.14587 8.25 1.45754 8.25 1.83337V4.58337C8.25 4.95921 7.93833 5.27087 7.5625 5.27087Z" fill="#A6C8C6"/>
<path d="M14.4375 5.27087C14.0617 5.27087 13.75 4.95921 13.75 4.58337V1.83337C13.75 1.45754 14.0617 1.14587 14.4375 1.14587C14.8133 1.14587 15.125 1.45754 15.125 1.83337V4.58337C15.125 4.95921 14.8133 5.27087 14.4375 5.27087Z" fill="#A6C8C6"/>
<path d="M11 12.9159C11.4767 12.9159 11.825 12.6317 11.825 12.1825C11.825 11.7242 11.4767 11.4584 11 11.4584C10.5233 11.4584 10.175 11.7242 10.175 12.1825C10.175 12.6317 10.5233 12.9159 11 12.9159Z" fill="#A6C8C6"/>
<path d="M11 15.5833C11.5772 15.5833 12.045 15.2016 12.045 14.7308C12.045 14.26 11.5772 13.8783 11 13.8783C10.4229 13.8783 9.95502 14.26 9.95502 14.7308C9.95502 15.2016 10.4229 15.5833 11 15.5833Z" fill="#A6C8C6"/>
<path d="M17.9392 4.12504C17.3342 3.67587 16.4634 4.10671 16.4634 4.86754V4.95921C16.4634 6.03171 15.6934 7.02171 14.6209 7.13171C13.3834 7.26004 12.3384 6.28837 12.3384 5.07837V4.12504C12.3384 3.62087 11.9259 3.20837 11.4217 3.20837H10.5784C10.0742 3.20837 9.66169 3.62087 9.66169 4.12504V5.07837C9.66169 5.80254 9.28585 6.44421 8.71752 6.80171C8.63502 6.85671 8.54335 6.90254 8.45169 6.94837C8.36919 6.99421 8.27752 7.03087 8.17669 7.05837C8.06669 7.09504 7.94752 7.12254 7.81919 7.13171C7.67252 7.15004 7.52585 7.15004 7.37919 7.13171C7.25085 7.12254 7.13169 7.09504 7.02169 7.05837C6.93002 7.03087 6.83835 6.99421 6.74669 6.94837C6.65502 6.90254 6.56335 6.85671 6.48085 6.80171C5.90335 6.39837 5.53669 5.70171 5.53669 4.95921V4.86754C5.53669 4.16171 4.78502 3.74004 4.18919 4.04254C4.18002 4.05171 4.17085 4.05171 4.16169 4.06087C4.12502 4.07921 4.09752 4.09754 4.06085 4.12504C4.03335 4.15254 3.99669 4.17087 3.96919 4.19837C3.71252 4.40004 3.48335 4.62921 3.29085 4.87671C3.19002 4.98671 3.10752 5.10587 3.03419 5.22504C3.02502 5.23421 3.01585 5.24337 3.00669 5.26171C2.92419 5.38087 2.85085 5.51837 2.78669 5.64671C2.76835 5.66504 2.75919 5.67421 2.75919 5.69254C2.70419 5.80254 2.64919 5.91254 2.61252 6.03171C2.58502 6.07754 2.57585 6.11421 2.55752 6.16004C2.50252 6.29754 2.46585 6.43504 2.42919 6.57254C2.39252 6.70087 2.36502 6.83837 2.34669 6.97587C2.32835 7.07671 2.31919 7.17754 2.31002 7.28754C2.30085 7.41587 2.29169 7.54421 2.29169 7.67254V15.7025C2.29169 18.1684 4.29002 20.1667 6.75585 20.1667H15.2442C17.71 20.1667 19.7084 18.1684 19.7084 15.7025V7.67254C19.7084 6.21504 19.0117 4.94087 17.9392 4.12504ZM11 16.7292C9.57919 16.7292 8.70835 16.0234 8.70835 14.8867C8.70835 14.2634 9.02919 13.7225 9.58835 13.4017C9.18502 13.1175 8.91919 12.6959 8.91919 12.1184C8.91919 10.9267 9.87252 10.3125 11 10.3125C12.1275 10.3125 13.0717 10.9267 13.0717 12.1184C13.0717 12.6959 12.815 13.1175 12.4025 13.4017C12.9709 13.7225 13.2917 14.2634 13.2917 14.8867C13.2917 16.0234 12.4117 16.7292 11 16.7292Z" fill="#A6C8C6"/>
</svg>
