<svg width="17" height="17" viewBox="0 0 17 17" fill="none" xmlns="http://www.w3.org/2000/svg">
<path d="M12.4808 7.61459C12.1762 7.61459 11.9354 7.36667 11.9354 7.06917C11.9354 6.80709 11.6733 6.26168 11.2342 5.78709C10.8021 5.32668 10.3275 5.05751 9.93082 5.05751C9.62624 5.05751 9.38541 4.80959 9.38541 4.51209C9.38541 4.21459 9.63332 3.96667 9.93082 3.96667C10.6392 3.96667 11.3829 4.34917 12.0346 5.03626C12.6437 5.68084 13.0333 6.48126 13.0333 7.06209C13.0333 7.36668 12.7854 7.61459 12.4808 7.61459Z" fill="#52B25F"/>
<path d="M15.0379 7.61454C14.7333 7.61454 14.4925 7.36663 14.4925 7.06913C14.4925 4.55454 12.4454 2.51454 9.9379 2.51454C9.63332 2.51454 9.39249 2.26663 9.39249 1.96913C9.39249 1.67163 9.63332 1.41663 9.93082 1.41663C13.0475 1.41663 15.5833 3.95246 15.5833 7.06913C15.5833 7.36663 15.3354 7.61454 15.0379 7.61454Z" fill="#52B25F"/>
<path d="M7.82707 10.5895L6.51666 11.9C6.24041 12.1762 5.80124 12.1762 5.51791 11.907C5.43999 11.8291 5.36207 11.7583 5.28416 11.6804C4.55457 10.9437 3.89582 10.1716 3.30791 9.36413C2.72707 8.55663 2.25957 7.74913 1.91957 6.94871C1.58666 6.14121 1.41666 5.36913 1.41666 4.63246C1.41666 4.15079 1.50166 3.69038 1.67166 3.26538C1.84166 2.83329 2.11082 2.43663 2.48624 2.08246C2.93957 1.63621 3.43541 1.41663 3.95957 1.41663C4.15791 1.41663 4.35624 1.45913 4.53332 1.54413C4.71749 1.62913 4.88041 1.75663 5.00791 1.94079L6.65124 4.25704C6.77874 4.43413 6.87082 4.59704 6.93457 4.75288C6.99832 4.90163 7.03374 5.05038 7.03374 5.18496C7.03374 5.35496 6.98416 5.52496 6.88499 5.68788C6.79291 5.85079 6.65832 6.02079 6.48832 6.19079L5.94999 6.75038C5.87207 6.82829 5.83666 6.92038 5.83666 7.03371C5.83666 7.09038 5.84374 7.13996 5.85791 7.19663C5.87916 7.25329 5.90041 7.29579 5.91457 7.33829C6.04207 7.57204 6.26166 7.87663 6.57332 8.24496C6.89207 8.61329 7.23207 8.98871 7.60041 9.36413C7.67124 9.43496 7.74916 9.50579 7.81999 9.57663C8.10332 9.85288 8.11041 10.3062 7.82707 10.5895Z" fill="#52B25F"/>
<path d="M15.5621 12.9837C15.5621 13.182 15.5267 13.3874 15.4558 13.5858C15.4346 13.6424 15.4133 13.6991 15.385 13.7558C15.2646 14.0108 15.1087 14.2516 14.9033 14.4783C14.5562 14.8608 14.1737 15.137 13.7417 15.3141C13.7346 15.3141 13.7275 15.3212 13.7204 15.3212C13.3025 15.4912 12.8492 15.5833 12.3604 15.5833C11.6379 15.5833 10.8658 15.4133 10.0512 15.0662C9.23665 14.7191 8.42207 14.2516 7.61457 13.6637C7.33832 13.4583 7.06207 13.2529 6.79999 13.0333L9.11624 10.717C9.31457 10.8658 9.49165 10.9791 9.6404 11.057C9.67582 11.0712 9.71832 11.0924 9.7679 11.1137C9.82457 11.1349 9.88124 11.142 9.94499 11.142C10.0654 11.142 10.1575 11.0995 10.2354 11.0216L10.7737 10.4904C10.9508 10.3133 11.1208 10.1787 11.2837 10.0937C11.4467 9.99453 11.6096 9.94495 11.7867 9.94495C11.9212 9.94495 12.0629 9.97328 12.2187 10.037C12.3746 10.1008 12.5375 10.1929 12.7146 10.3133L15.0592 11.9779C15.2433 12.1054 15.3708 12.2541 15.4487 12.4312C15.5196 12.6083 15.5621 12.7854 15.5621 12.9837Z" fill="#52B25F"/>
</svg>
