<svg width="19" height="19" viewBox="0 0 19 19" fill="none" xmlns="http://www.w3.org/2000/svg">
<path fill-rule="evenodd" clip-rule="evenodd" d="M7.86848 0.0183928C4.9921 0.143993 3.43485 0.492169 2.26448 1.27135C0.844885 2.21645 0.19939 3.8353 0.0352596 6.86203C-0.011778 7.72901 -0.0117408 9.1007 0.0352968 9.94356C0.174739 12.442 0.640586 13.9105 1.58991 14.8443C2.2725 15.5158 2.97632 15.7664 4.39728 15.8438C5.34464 15.8954 5.72762 15.9911 6.2218 16.2999C6.48141 16.4622 6.89484 16.8815 7.09275 17.1834C7.16641 17.2956 7.34086 17.5629 7.48045 17.7773C7.80827 18.2808 8.15635 18.6333 8.47147 18.7807C9.09621 19.0731 9.90777 19.0731 10.5325 18.7807C10.8476 18.6333 11.1957 18.2808 11.5235 17.7773C11.6631 17.5629 11.8376 17.2956 11.9112 17.1834C12.1091 16.8815 12.5226 16.4622 12.7822 16.2999C13.2738 15.9927 13.6599 15.8954 14.5881 15.8449C15.4302 15.7992 15.8125 15.7372 16.2763 15.5715C17.1154 15.2715 17.7401 14.6945 18.1894 13.8046C18.3676 13.4516 18.6153 12.6664 18.7222 12.1155C18.9377 11.0057 19.0259 9.62349 18.9935 7.86445C18.9556 5.80877 18.8106 4.67113 18.4478 3.58298C17.5348 0.844651 15.3083 -0.0323596 9.35349 0.00090604C8.66946 0.00473011 8.00121 0.012601 7.86848 0.0183928ZM11.6553 1.62769C13.6915 1.73922 14.9721 2.01192 15.7911 2.50842C16.962 3.21821 17.4097 4.84674 17.4097 8.39711C17.4097 9.69473 17.3676 10.4946 17.2588 11.2616C16.9985 13.0985 16.4654 13.953 15.442 14.174C15.3297 14.1983 14.9338 14.2328 14.5623 14.2508C13.4167 14.3061 12.7424 14.4765 12.0549 14.8843C11.4035 15.2707 10.9818 15.715 10.3414 16.6898C10.1239 17.0207 9.90926 17.3173 9.86426 17.3488C9.75144 17.4278 9.25273 17.4279 9.14002 17.349C9.09521 17.3176 8.86849 17.0043 8.6362 16.6528C8.1235 15.8771 7.80248 15.5007 7.38025 15.1802C6.55967 14.5574 5.79857 14.317 4.43611 14.2504C3.68741 14.2138 3.42831 14.1658 3.09415 14.0022C2.68266 13.8007 2.37853 13.4282 2.13762 12.8306C1.75568 11.8832 1.59489 10.5761 1.59526 8.42136C1.59589 5.00798 2.00338 3.39779 3.05554 2.65147C3.90942 2.04574 5.31182 1.72515 7.59005 1.61485C8.19433 1.58559 11.0515 1.59461 11.6553 1.62769ZM13.1118 7.21737C12.9687 7.28869 12.8774 7.37282 12.7509 7.55021C12.4135 8.0231 11.9343 8.42095 11.5377 8.55757C11.3234 8.63142 11.0006 8.62986 10.759 8.55386C10.5554 8.48982 10.3253 8.3409 9.75663 7.90511C9.0497 7.36339 8.24334 7.12195 7.50258 7.23029C6.776 7.33651 6.12226 7.68272 5.53034 8.27467C5.22566 8.57937 4.88845 9.01568 4.80699 9.2106C4.5988 9.70899 4.9888 10.2777 5.53881 10.2777C5.83016 10.2777 6.02942 10.1627 6.24637 9.8693C6.95762 8.90742 7.72206 8.58063 8.43353 8.93437C8.56176 8.99812 8.82397 9.17655 9.01625 9.33089C9.59547 9.79587 9.98328 10.0023 10.5187 10.1307C11.6702 10.4068 12.902 9.89087 13.8306 8.74351C14.109 8.39938 14.2531 8.12683 14.2536 7.94301C14.2549 7.48947 13.8867 7.12191 13.4309 7.12191C13.3608 7.12191 13.2171 7.16487 13.1118 7.21737Z" fill="#FECF24"/>
</svg>
