<svg width="20" height="20" viewBox="0 0 20 20" fill="none" xmlns="http://www.w3.org/2000/svg">
<path d="M9.99999 17.0833H5.83332C3.33332 17.0833 1.66666 15.8333 1.66666 12.9166V7.08329C1.66666 4.16663 3.33332 2.91663 5.83332 2.91663H14.1667C16.6667 2.91663 18.3333 4.16663 18.3333 7.08329V9.58329" stroke="#B3AEA5" stroke-width="1.5" stroke-miterlimit="10" stroke-linecap="round" stroke-linejoin="round"/>
<path d="M14.1667 7.5L11.5583 9.58333C10.7 10.2667 9.29167 10.2667 8.43334 9.58333L5.83334 7.5" stroke="#B3AEA5" stroke-width="1.5" stroke-miterlimit="10" stroke-linecap="round" stroke-linejoin="round"/>
<path d="M16.0083 12.3083L13.0584 15.2583C12.9417 15.375 12.8333 15.5917 12.8083 15.75L12.65 16.875C12.5917 17.2833 12.875 17.5667 13.2833 17.5083L14.4084 17.35C14.5667 17.325 14.7917 17.2167 14.9 17.1L17.85 14.15C18.3584 13.6417 18.6 13.05 17.85 12.3C17.1084 11.5583 16.5167 11.8 16.0083 12.3083Z" stroke="#B3AEA5" stroke-width="1.5" stroke-miterlimit="10" stroke-linecap="round" stroke-linejoin="round"/>
<path d="M15.5833 12.7333C15.8333 13.6333 16.5333 14.3333 17.4333 14.5833" stroke="#B3AEA5" stroke-width="1.5" stroke-miterlimit="10" stroke-linecap="round" stroke-linejoin="round"/>
</svg>
