<svg width="22" height="22" viewBox="0 0 22 22" fill="none" xmlns="http://www.w3.org/2000/svg">
<path d="M15.9408 14.3642L12.2375 11H9.75333L6.05 14.3642C5.01417 15.2992 4.675 16.7383 5.17917 18.04C5.68333 19.3325 6.91167 20.1667 8.29583 20.1667H13.695C15.0883 20.1667 16.3075 19.3325 16.8117 18.04C17.3158 16.7383 16.9767 15.2992 15.9408 14.3642ZM12.6683 16.6283H9.33167C8.98333 16.6283 8.70833 16.3442 8.70833 16.005C8.70833 15.6658 8.9925 15.3817 9.33167 15.3817H12.6683C13.0167 15.3817 13.2917 15.6658 13.2917 16.005C13.2917 16.3442 13.0075 16.6283 12.6683 16.6283Z" fill="#A6C8C6"/>
<path d="M16.8208 3.96004C16.3167 2.66754 15.0883 1.83337 13.7042 1.83337H8.29584C6.91167 1.83337 5.68334 2.66754 5.17917 3.96004C4.68417 5.26171 5.02334 6.70087 6.05917 7.63587L9.7625 11H12.2467L15.95 7.63587C16.9767 6.70087 17.3158 5.26171 16.8208 3.96004ZM12.6683 6.62754H9.33167C8.98334 6.62754 8.70834 6.34337 8.70834 6.00421C8.70834 5.66504 8.9925 5.38087 9.33167 5.38087H12.6683C13.0167 5.38087 13.2917 5.66504 13.2917 6.00421C13.2917 6.34337 13.0075 6.62754 12.6683 6.62754Z" fill="#A6C8C6"/>
</svg>
